# xmcd
# 
# Track frame offsets:
#     150
#     11730
#     24040
#     33827
#     45975
#     58955
#     72317
#     82812
#     94430
#     104550
#     118008
#     131133
#     142871
#     155417
# 
# Disc length: 2253
# 
# Revision: 5
# Processed by: cddbd v1.5.2PL0 Copyright (c) Steve Scherf et al.
# Submitted via: fre:ac v1.0.17
# 
DISCID=b408cb0e
DTITLE=Various Artist - Country Gold vol 1
DYEAR=1999
DGENRE=Country
TTITLE0=Patsy Cline - Cry Not For Me
TTITLE1=Kenny Rogers and The FIrst Edition - Reuben James
TTITLE2=Donna Fargo - Sticks and Stones
TTITLE3=Stonewall Jackson - Ol' Blue
TTITLE4=Donna Fargo - Daddy
TTITLE5=Kenny Rogers and The First Edition - Shine on Ruby Mountain
TTITLE6=Waylon Jennings - Dream Baby
TTITLE7=George Jones - Your Tender Years
TTITLE8=Frankie Laine - I Believe
TTITLE9=Willie Nelson - You'll Always Have Someone
TTITLE10=Kenny Rogers and The FIrst Edition - Runy, Don't Take Your  Love to Town
TTITLE11=Roy Drisky - Take These Chanins From My Heart
TTITLE12=Frankie Laine - High Noon
TTITLE13=Freddy Fender - Wasted Days and Wasted Nights
EXTD=YEAR: 1999
EXTT0=
EXTT1=
EXTT2=
EXTT3=
EXTT4=
EXTT5=
EXTT6=
EXTT7=
EXTT8=
EXTT9=
EXTT10=
EXTT11=
EXTT12=
EXTT13=
PLAYORDER=
